<svg xmlns="http://www.w3.org/2000/svg" viewBox="0 0 64 64" aria-hidden="true">
    <path d="M32 7.5c-13.5 0-24.5 10.7-24.5 23.9 0 4.5 1.3 8.8 3.7 12.5L8 56.5l13.2-3.2A25.1 25.1 0 0 0 32 55.3c13.5 0 24.5-10.7 24.5-23.9S45.5 7.5 32 7.5Z" fill="none" stroke="#fff" stroke-width="5" stroke-linecap="round" stroke-linejoin="round"/>
    <path d="M23.4 19.6c-.9.4-2.6 2.5-2.6 5.3 0 6.9 8.5 17.3 18.3 18.4 2.8.3 5.1-1.5 5.8-2.8.4-.9.9-3.3.4-3.8-.4-.4-5.4-2.9-6.2-3.2-.8-.3-1.4-.1-2 .7l-1.6 2c-.4.5-1.1.7-1.8.4-3.7-1.6-6.7-4.6-8.3-8.2-.3-.7-.1-1.4.4-1.8l2-1.6c.7-.5.9-1.2.6-2-.3-.8-2.8-5.8-3.2-6.2-.5-.5-2.9 0-3.8.4Z" fill="#fff"/>
</svg>
